<?xml version="1.0" encoding="utf-8"?>
<!-- Generator: Adobe Illustrator 28.1.0, SVG Export Plug-In . SVG Version: 6.00 Build 0)  -->
<svg version="1.1" xmlns="http://www.w3.org/2000/svg" xmlns:xlink="http://www.w3.org/1999/xlink" x="0px" y="0px"
	 viewBox="0 0 968.5 306.1" style="enable-background:new 0 0 968.5 306.1;" xml:space="preserve">
<style type="text/css">
	.st0{display:none;}
	.st1{display:inline;}
	.st2{fill:none;stroke:#F06F96;stroke-width:0.2204;stroke-miterlimit:10;}
	.st3{fill:none;stroke:#F06F96;stroke-width:0.2247;stroke-miterlimit:10;}
	.st4{fill:#005EB8;}
</style>
<g id="GRID" class="st0">
	<g class="st1">
		<polyline class="st2" points="0,0 0,305.9 917.7,305.9 917.7,0 		"/>
		<line class="st3" x1="953.8" y1="271.9" x2="0" y2="271.9"/>
		<line class="st3" x1="953.8" y1="237.9" x2="0" y2="237.9"/>
		<line class="st3" x1="953.8" y1="203.9" x2="0" y2="203.9"/>
		<line class="st3" x1="953.8" y1="170" x2="0" y2="170"/>
		<line class="st3" x1="953.8" y1="136" x2="0" y2="136"/>
		<line class="st3" x1="953.8" y1="102" x2="0" y2="102"/>
		<line class="st3" x1="953.8" y1="68" x2="0" y2="68"/>
		<line class="st3" x1="953.8" y1="34" x2="0" y2="34"/>
		<line class="st2" x1="917.7" y1="0" x2="0" y2="0"/>
		<line class="st2" x1="34" y1="0" x2="34" y2="305.9"/>
		<line class="st2" x1="68" y1="0" x2="68" y2="305.9"/>
		<line class="st2" x1="102" y1="0" x2="102" y2="305.9"/>
		<line class="st2" x1="136" y1="0" x2="136" y2="305.9"/>
		<line class="st2" x1="169.9" y1="0" x2="169.9" y2="305.9"/>
		<line class="st2" x1="203.9" y1="0" x2="203.9" y2="305.9"/>
		<line class="st2" x1="237.9" y1="0" x2="237.9" y2="305.9"/>
		<line class="st2" x1="271.9" y1="0" x2="271.9" y2="305.9"/>
		<line class="st2" x1="305.9" y1="0" x2="305.9" y2="305.9"/>
		<line class="st2" x1="339.9" y1="0" x2="339.9" y2="305.9"/>
		<line class="st2" x1="373.9" y1="0" x2="373.9" y2="305.9"/>
		<line class="st2" x1="407.9" y1="0" x2="407.9" y2="305.9"/>
		<line class="st2" x1="441.9" y1="0" x2="441.9" y2="305.9"/>
		<line class="st2" x1="475.8" y1="0" x2="475.8" y2="305.9"/>
		<line class="st2" x1="509.8" y1="0" x2="509.8" y2="305.9"/>
		<line class="st2" x1="543.8" y1="0" x2="543.8" y2="305.9"/>
		<line class="st2" x1="577.8" y1="0" x2="577.8" y2="305.9"/>
		<line class="st2" x1="611.8" y1="0" x2="611.8" y2="305.9"/>
		<line class="st2" x1="645.8" y1="0" x2="645.8" y2="305.9"/>
		<line class="st2" x1="679.8" y1="0" x2="679.8" y2="305.9"/>
		<line class="st2" x1="713.8" y1="0" x2="713.8" y2="305.9"/>
		<line class="st2" x1="747.8" y1="0" x2="747.8" y2="305.9"/>
		<line class="st2" x1="781.8" y1="0" x2="781.8" y2="305.9"/>
		<line class="st2" x1="815.7" y1="0" x2="815.7" y2="305.9"/>
		<line class="st2" x1="849.7" y1="0" x2="849.7" y2="305.9"/>
		<line class="st2" x1="883.7" y1="0" x2="883.7" y2="305.9"/>
	</g>
</g>
<g id="LOGO">
	<g>
		<polygon class="st4" points="203.9,153 203.9,102 135.5,102 		"/>
		<polygon class="st4" points="203.9,153 203.9,204 135.5,204 		"/>
		<path class="st4" d="M150.7,164.7c12.7-10.2,16.8-11.7,16.8-11.7s-5-2.2-18-12.8c-5.5-4.5-41.4-33.3-47.5-38.2v101.9
			C105.4,201.2,143.9,170.1,150.7,164.7z"/>
	</g>
	<path class="st4" d="M237.9,153.1c0-31.4,23.7-52.2,60.1-52.2c33.3,0,55.7,16.6,57,42.3l-23.7,0.6c-1.3-14.4-14.5-24.1-33.3-24.1
		c-21.9,0-36.4,13.4-36.4,33.4c0,20,14.5,33.4,36.4,33.4c18.3,0,31.6-9.7,33.3-24.4l23.5,0.1c-1.3,25.9-23.8,43-56.8,43
		C261.6,205.2,237.9,184.5,237.9,153.1z"/>
	<path class="st4" d="M634,102h29.9l46.6,102h-25.4l-11.2-25.2h-50.6l-11.2,25.2h-24.6L634,102z M666.1,161.4l-17.3-39.1l-17.5,39.1
		H666.1z"/>
	<path class="st4" d="M483.5,168.4h22.8c0.6,12.6,11.6,19.2,29.5,19.2c14.4,0,23-3.9,23-11.4c0-6.2-5.4-10.2-15.1-11.4l-24.1-3.2
		c-19-2.4-32.2-12.3-32.2-29.2c0-19.5,17.2-31.4,44.7-31.4c28.6,0,46.5,13.4,47.2,34.8h-22.6c-0.6-11.6-10.3-17.5-25.1-17.5
		c-13.3,0-21.3,4.1-21.3,11.6c0,6.1,4.9,9.7,13.8,11l22.4,2.8c25,3.2,36,15.8,36,30.9c0,19.5-18.3,30.7-47.4,30.7
		C504,205.2,483.9,191,483.5,168.4z"/>
	<path class="st4" d="M723.4,102h24.3v102h-24.3V102z"/>
	<path class="st4" d="M767.4,168.4h22.8c0.6,12.6,11.6,19.2,29.5,19.2c14.4,0,23-3.9,23-11.4c0-6.2-5.4-10.2-15.1-11.4l-24.1-3.2
		c-19-2.4-32.2-12.3-32.2-29.2c0-19.5,17.2-31.4,44.7-31.4c28.6,0,46.5,13.4,47.2,34.8h-22.6c-0.6-11.6-10.3-17.5-25.1-17.5
		c-13.3,0-21.3,4.1-21.3,11.6c0,6.1,4.9,9.7,13.8,11l22.4,2.8c25,3.2,36,15.8,36,30.9c0,19.5-18.3,30.7-47.4,30.7
		C787.8,205.2,767.8,191,767.4,168.4z"/>
	<path class="st4" d="M403.8,102h29.9l46.6,102h-25.4l-11.2-25.2h-50.6l-11.2,25.2h-24.6L403.8,102z M435.8,161.4l-17.3-39.1
		L401,161.4H435.8z"/>
</g>
<g id="GUIDES">
</g>
</svg>
